<?xml version="1.0" encoding="UTF-8" standalone="no"?>
<!-- Created with Inkscape (http://www.inkscape.org/) -->

<svg
   width="32"
   height="32.299999"
   viewBox="0 0 8.4666665 8.5460414"
   version="1.1"
   id="svg1"
   inkscape:version="1.4.2 (ebf0e940, 2025-05-08)"
   sodipodi:docname="favicon-teal.svg"
   xmlns:inkscape="http://www.inkscape.org/namespaces/inkscape"
   xmlns:sodipodi="http://sodipodi.sourceforge.net/DTD/sodipodi-0.dtd"
   xmlns="http://www.w3.org/2000/svg"
   xmlns:svg="http://www.w3.org/2000/svg">
  <sodipodi:namedview
     id="namedview1"
     pagecolor="#ffffff"
     bordercolor="#000000"
     borderopacity="0.25"
     inkscape:showpageshadow="2"
     inkscape:pageopacity="0.0"
     inkscape:pagecheckerboard="0"
     inkscape:deskcolor="#d1d1d1"
     inkscape:document-units="mm"
     inkscape:zoom="9.8224968"
     inkscape:cx="17.561726"
     inkscape:cy="19.292447"
     inkscape:window-width="1200"
     inkscape:window-height="716"
     inkscape:window-x="1546"
     inkscape:window-y="1118"
     inkscape:window-maximized="0"
     inkscape:current-layer="layer1" />
  <defs
     id="defs1" />
  <g
     inkscape:label="Layer 1"
     inkscape:groupmode="layer"
     id="layer1"
     transform="matrix(0.04489661,0,0,0.04489661,-0.90533105,-4.469689)">
    <path
       sodipodi:type="star"
       style="fill:#000000;fill-opacity:1;stroke:#18bc9c;stroke-width:3;stroke-dasharray:none;stroke-opacity:1"
       id="path1"
       inkscape:flatsided="true"
       sodipodi:sides="6"
       sodipodi:cx="114.82627"
       sodipodi:cy="193.85378"
       sodipodi:r1="92.558655"
       sodipodi:r2="74.881523"
       sodipodi:arg1="-1.5707963"
       sodipodi:arg2="-1.0471975"
       inkscape:rounded="0"
       inkscape:randomized="0"
       d="m 114.82627,101.29512 80.15815,46.27933 0,92.55865 -80.15815,46.27933 -80.158147,-46.27933 3e-6,-92.55865 z"
       inkscape:transform-center-y="-8.8386728"
       transform="matrix(1.1547004,0,0,1.0000122,-17.33443,1.1564674)" />
    <path
       style="fill:#d82ad8;fill-opacity:1;stroke:#18bc9c;stroke-width:10;stroke-dasharray:none;stroke-opacity:1"
       id="path16"
       d="m 68.955921,154.27118 c 1.306362,5.0781 0.951046,10.36481 0.718948,15.52542 -0.634268,10.0707 -2.165034,20.07394 -3.25583,30.1096 -0.882495,7.69037 -1.403183,15.40835 -1.131061,23.13716 0.191073,3.18842 0.08948,1.6791 0.298086,4.52832 0,0 3.364877,1.48883 3.364877,1.48883 v 0 c -0.302361,-2.87709 -0.158689,-1.3548 -0.419186,-4.56775 -0.419816,-7.75358 0.02986,-15.50422 0.821405,-23.23128 1.072913,-10.02548 2.614413,-20.01019 3.402275,-30.05884 0.308112,-5.12568 0.752645,-10.3277 -0.209106,-15.4213 z" />
    <path
       style="fill:#18bc9c;fill-opacity:1;stroke:#18bc9c;stroke-width:9.87681;stroke-dasharray:none;stroke-opacity:1"
       id="path18"
       d="m 137.74615,131.39484 c 1.59583,6.69526 1.79085,13.6531 1.92005,20.52199 0.17943,14.14839 -1.79409,28.16437 -3.84185,42.10078 -1.6806,11.35743 -3.36495,22.71936 -5.54109,33.98322 -0.88291,4.4502 -2.06283,8.81912 -3.20501,13.19841 -0.55423,2.30116 -1.00651,4.62911 -1.41594,6.96391 -0.38815,2.62223 -0.88093,2.39766 3.29945,3.79859 0.30706,0.1029 0.55298,-0.35124 0.82329,-0.5373 0.41976,-0.28893 0.83102,-0.59161 1.24653,-0.88742 4.22556,-3.22344 8.6969,-6.05214 13.30163,-8.61208 4.59436,-2.71889 9.58847,-4.40241 14.5871,-6.03705 5.20257,-1.90256 10.40636,-3.79527 15.70016,-5.3926 1.92199,-0.55811 3.84189,-1.11384 5.77745,-1.61583 0,0 -2.95514,-2.17038 -2.95514,-2.17038 v 0 c -1.92817,0.51586 -3.84178,1.08103 -5.75679,1.6499 -5.2535,1.67612 -10.42441,3.61584 -15.62984,5.45012 -5.02531,1.6412 -10.05571,3.28731 -14.65184,6.0753 -4.60198,2.62829 -9.08475,5.47692 -13.43401,8.55561 -0.43063,0.27399 -0.85093,0.56728 -1.29191,0.82195 -0.26495,0.15301 -1.01806,0.1549 -0.82281,0.39932 3.33239,4.17167 2.77189,2.44868 3.08902,0.35826 0.35548,-2.33992 0.83481,-4.65538 1.34991,-6.96073 1.09772,-4.4303 2.10165,-8.88688 2.93577,-13.38278 1.9847,-11.35361 3.52322,-22.78665 5.19097,-34.19627 2.00877,-13.92579 4.10586,-27.89408 4.08754,-42.02615 -0.0281,-6.79683 -0.12921,-13.64435 -1.38128,-20.33488 z" />
    <path
       style="fill:#d82ad8;fill-opacity:1;stroke:#18bc9c;stroke-width:9.75657;stroke-dasharray:none;stroke-opacity:1"
       id="path19"
       d="m 57.605202,151.93319 c 3.263921,-4.40195 7.485014,-7.52518 11.645294,-10.57104 4.463775,-3.12059 9.28159,-5.46961 14.338665,-6.81406 3.00311,-0.7984 4.622446,-0.95277 7.661263,-1.40505 5.737637,-0.33531 11.660916,-0.24291 17.237756,1.63425 0.80972,0.27255 1.58327,0.67932 2.37489,1.01898 0.61525,0.342 1.38575,0.43132 1.84574,1.02597 0.39003,0.50418 -1.23637,-1.24414 -1.61529,-0.72804 -0.36559,0.498 0.70522,1.03491 0.95727,1.62434 1.08265,2.53184 1.10299,5.37462 1.20102,8.1312 -0.4936,10.15849 -3.90813,19.64128 -7.20643,28.88775 -3.95072,10.28724 -8.080179,20.47805 -12.285997,30.62068 -3.28755,7.53998 -6.65257,15.06128 -10.683717,22.08124 -2.657069,4.47082 -5.609589,8.6679 -8.684459,12.73388 -1.588752,1.87304 -3.136905,3.78612 -4.416996,5.97348 -0.656308,1.01827 -1.132852,2.15263 -1.633218,3.27949 -0.167659,0.26195 -0.221455,0.69951 -0.476294,0.86086 0,0 3.112834,2.3188 3.112834,2.3188 v 0 c 0.245153,-0.2937 0.371853,-0.6567 0.527463,-1.02677 0.479658,-1.11682 0.932022,-2.24803 1.557394,-3.26667 1.273791,-2.15846 2.752752,-4.11111 4.294855,-6.00335 3.038576,-4.11843 5.93862,-8.37736 8.592407,-12.86172 3.974443,-7.08741 7.260617,-14.67668 10.528271,-22.24881 4.192647,-10.15927 8.278097,-20.3838 12.250467,-30.66773 3.32926,-9.26089 6.80708,-18.7272 7.51039,-28.88219 -0.0388,-2.78384 -0.006,-5.66348 -0.99911,-8.26852 -1.26507,-3.31885 -4.40782,-4.66853 -7.04241,-6.05636 -0.78584,-0.31339 -1.55638,-0.68765 -2.35753,-0.94018 -5.58855,-1.76154 -11.483277,-1.82456 -17.210617,-1.44816 -2.873949,0.44599 -4.854435,0.67277 -7.69372,1.44189 -5.077465,1.37543 -9.892429,3.81918 -14.399012,6.89691 -4.252929,3.05363 -8.54425,6.17421 -12.035653,10.43962 z" />
  </g>
</svg>
