<?xml version="1.0" encoding="UTF-8" standalone="no"?>
<!-- Created with Inkscape (http://www.inkscape.org/) -->

<svg
   width="210mm"
   height="297mm"
   viewBox="0 0 210 297"
   version="1.1"
   id="svg1"
   inkscape:version="1.4.2 (ebf0e940, 2025-05-08)"
   sodipodi:docname="drawing.svg"
   xmlns:inkscape="http://www.inkscape.org/namespaces/inkscape"
   xmlns:sodipodi="http://sodipodi.sourceforge.net/DTD/sodipodi-0.dtd"
   xmlns="http://www.w3.org/2000/svg"
   xmlns:svg="http://www.w3.org/2000/svg">
  <sodipodi:namedview
     id="namedview1"
     pagecolor="#ffffff"
     bordercolor="#000000"
     borderopacity="0.25"
     inkscape:showpageshadow="2"
     inkscape:pageopacity="0.0"
     inkscape:pagecheckerboard="0"
     inkscape:deskcolor="#d1d1d1"
     inkscape:document-units="mm"
     inkscape:zoom="0.39171494"
     inkscape:cx="379.10221"
     inkscape:cy="570.56798"
     inkscape:window-width="1200"
     inkscape:window-height="716"
     inkscape:window-x="1546"
     inkscape:window-y="1159"
     inkscape:window-maximized="0"
     inkscape:current-layer="layer1" />
  <defs
     id="defs1" />
  <g
     inkscape:label="Layer 1"
     inkscape:groupmode="layer"
     id="layer1">
    <path
       sodipodi:type="star"
       style="fill:#000000;stroke:#d82ad8;stroke-width:1.465;stroke-dasharray:none;stroke-opacity:1;fill-opacity:1"
       id="path1"
       inkscape:flatsided="true"
       sodipodi:sides="6"
       sodipodi:cx="114.82627"
       sodipodi:cy="193.85378"
       sodipodi:r1="92.558655"
       sodipodi:r2="74.881523"
       sodipodi:arg1="-1.5707963"
       sodipodi:arg2="-1.0471975"
       inkscape:rounded="0"
       inkscape:randomized="0"
       d="m 114.82627,101.29512 80.15815,46.27933 0,92.55865 -80.15815,46.27933 -80.158147,-46.27933 3e-6,-92.55865 z"
       inkscape:transform-center-y="-8.8385647" />
    <path
       style="fill:none;stroke:#d82ad8;stroke-width:1.39579;stroke-dasharray:none;stroke-opacity:1"
       id="path16"
       d="m 70.658769,156.34644 c 1.306362,5.0781 0.951046,10.36481 0.718948,15.52542 -0.634268,10.0707 -2.165034,20.07394 -3.25583,30.1096 -0.882495,7.69037 -1.403183,15.40835 -1.131061,23.13716 0.191073,3.18842 0.08948,1.6791 0.298086,4.52832 0,0 3.364877,1.48883 3.364877,1.48883 v 0 c -0.302361,-2.87709 -0.158689,-1.3548 -0.419186,-4.56775 -0.419816,-7.75358 0.02986,-15.50422 0.821405,-23.23128 1.072913,-10.02548 2.614413,-20.01019 3.402275,-30.05884 0.308112,-5.12568 0.752645,-10.3277 -0.209106,-15.4213 z" />
    <path
       style="fill:none;stroke:#d82ad8;stroke-width:1.465;stroke-dasharray:none;stroke-opacity:1"
       id="path18"
       d="m 136.86266,133.53925 c 1.66683,6.57096 1.87053,13.39962 2.00548,20.14098 0.18741,13.8857 -1.87392,27.64146 -4.01279,41.31912 -1.75537,11.14657 -3.51466,22.29755 -5.78762,33.35228 -0.9222,4.36758 -2.15462,8.65538 -3.34761,12.95336 -0.57889,2.25844 -1.0513,4.54317 -1.47894,6.83462 -0.40542,2.57354 -0.92013,2.35314 3.44625,3.72806 0.32072,0.10099 0.57758,-0.34471 0.85992,-0.52732 0.43843,-0.28357 0.86799,-0.58063 1.30199,-0.87094 4.41357,-3.1636 9.08385,-5.93978 13.89346,-8.45219 4.79877,-2.66841 10.01508,-4.32067 15.23612,-5.92496 5.43404,-1.86724 10.86937,-3.72481 16.3987,-5.29248 2.00751,-0.54775 4.01283,-1.09316 6.03451,-1.58583 0,0 -3.08663,-2.13009 -3.08663,-2.13009 v 0 c -2.01396,0.50628 -4.01271,1.06096 -6.01292,1.61927 -5.48724,1.645 -10.88822,3.54871 -16.32526,5.34893 -5.2489,1.61073 -10.50311,3.22628 -15.30374,5.96251 -4.80673,2.57949 -9.48895,5.37523 -14.03172,8.39676 -0.44979,0.2689 -0.88879,0.55675 -1.34939,0.80669 -0.27674,0.15017 -1.06336,0.15202 -0.85942,0.3919 3.48065,4.09422 2.89521,2.40322 3.22645,0.35161 0.3713,-2.29647 0.87196,-4.56894 1.40998,-6.83149 1.14656,-4.34805 2.19515,-8.72189 3.06639,-13.13431 2.073,-11.14282 3.67997,-22.36359 5.42193,-33.56138 2.09814,-13.66724 4.28854,-27.37619 4.2694,-41.24588 -0.0293,-6.67063 -0.13496,-13.39102 -1.44273,-19.95733 z" />
    <path
       style="fill:none;fill-opacity:1;stroke:#d82ad8;stroke-width:1.51328;stroke-dasharray:none;stroke-opacity:1"
       id="path19"
       d="m 56.107332,155.38605 c 3.49533,-4.31819 8.015695,-7.382 12.470936,-10.3699 4.780253,-3.06121 9.939648,-5.36554 15.355266,-6.68441 3.216027,-0.78321 4.950173,-0.93463 8.20444,-1.37831 6.144436,-0.32894 12.487666,-0.23829 18.459906,1.60315 0.86713,0.26737 1.69552,0.66639 2.54327,0.99959 0.65887,0.33549 1.484,0.42312 1.9766,1.00645 0.41768,0.49459 -1.32403,-1.22047 -1.72981,-0.71419 -0.39151,0.48852 0.75521,1.01522 1.02513,1.59343 1.15941,2.48367 1.1812,5.27236 1.28617,7.97649 -0.52859,9.9652 -4.18521,19.26756 -7.71736,28.33809 -4.23082,10.0915 -8.65306,20.08841 -13.157064,30.03805 -3.520634,7.39651 -7.124231,14.77471 -11.441183,21.66109 -2.845454,4.38575 -6.007305,8.50297 -9.300182,12.49159 -1.701393,1.8374 -3.359309,3.71407 -4.730157,5.85981 -0.70284,0.99891 -1.21317,2.11168 -1.749012,3.21709 -0.179546,0.25697 -0.237156,0.68621 -0.510063,0.84448 0,0 3.333532,2.27469 3.333532,2.27469 v 0 c 0.262534,-0.28812 0.398217,-0.64421 0.564859,-1.00724 0.513665,-1.09557 0.998103,-2.20525 1.667812,-3.20451 1.364102,-2.1174 2.947921,-4.03289 4.599357,-5.88913 3.254009,-4.04006 6.359664,-8.21796 9.201603,-12.61698 4.256228,-6.95257 7.775389,-14.39743 11.274717,-21.82548 4.489911,-9.96597 8.865001,-19.99595 13.119021,-30.0842 3.5653,-9.08468 7.2897,-18.37087 8.04287,-28.33264 -0.0416,-2.73087 -0.007,-5.55571 -1.06994,-8.11119 -1.35476,-3.2557 -4.72034,-4.5797 -7.54172,-5.94113 -0.84155,-0.30742 -1.66673,-0.67456 -2.52468,-0.92229 -5.98477,-1.72802 -12.297432,-1.78984 -18.430835,-1.4206 -3.077711,0.43751 -5.198612,0.65997 -8.239199,1.41446 -5.437454,1.34925 -10.593796,3.74651 -15.419891,6.76567 -4.55446,2.99554 -9.150031,6.05674 -12.888973,10.24099 z" />
  </g>
</svg>
