<?xml version="1.0" encoding="UTF-8" standalone="no"?>
<!-- Created with Inkscape (http://www.inkscape.org/) -->

<svg
   width="80"
   height="80"
   viewBox="0 0 21.166666 21.166667"
   version="1.1"
   id="svg1"
   xmlns="http://www.w3.org/2000/svg"
   xmlns:svg="http://www.w3.org/2000/svg">
  <defs
     id="defs1" />
  <g
     id="layer1"
     transform="matrix(0.04489661,0,0,0.04489661,-0.90533105,-4.469689)">
    <path
       style="fill:#000000;fill-opacity:1;stroke:#18bc9c;stroke-width:3;stroke-dasharray:none;stroke-opacity:1"
       id="path1"
       d="m 114.82627,101.29512 80.15815,46.27933 0,92.55865 -80.15815,46.27933 -80.158147,-46.27933 3e-6,-92.55865 z"
       transform="matrix(2.8867515,0,0,2.5000309,-74.783315,-148.19)" />
    <path
       style="fill:#d82ad8;fill-opacity:1;stroke:#18bc9c;stroke-width:25;stroke-dasharray:none;stroke-opacity:1"
       id="path16"
       d="m 140.9426,234.59685 c 3.26591,12.69525 2.37762,25.91203 1.79737,38.81355 -1.58567,25.17676 -5.41259,50.18486 -8.13958,75.27402 -2.20623,19.22592 -3.50795,38.52088 -2.82765,57.84291 0.47768,7.97105 0.2237,4.19775 0.74522,11.3208 0,0 8.41219,3.72207 8.41219,3.72207 v 0 c -0.7559,-7.19272 -0.39672,-3.387 -1.04796,-11.41937 -1.04954,-19.38396 0.0746,-38.76056 2.05351,-58.07821 2.68228,-25.06371 6.53603,-50.02549 8.50569,-75.14712 0.77028,-12.8142 1.88161,-25.81925 -0.52277,-38.55325 z" />
    <path
       style="fill:#18bc9c;fill-opacity:1;stroke:#18bc9c;stroke-width:24.692;stroke-dasharray:none;stroke-opacity:1"
       id="path18"
       d="m 312.9182,177.40599 c 3.98958,16.73815 4.47713,34.13275 4.80013,51.30498 0.44857,35.37098 -4.48523,70.41094 -9.60463,105.25197 -4.2015,28.39358 -8.41237,56.79841 -13.85273,84.95806 -2.20727,11.12551 -5.15707,22.04781 -8.01252,32.99603 -1.38558,5.75291 -2.51628,11.57278 -3.53985,17.40978 -0.97038,6.55558 -2.20233,5.99415 8.24862,9.49648 0.76765,0.25725 1.38245,-0.8781 2.05823,-1.34325 1.0494,-0.72233 2.07755,-1.47903 3.11633,-2.21855 10.5639,-8.0586 21.74225,-15.13035 33.25408,-21.53021 11.4859,-6.79722 23.97118,-11.00602 36.46775,-15.09262 13.00643,-4.7564 26.01591,-9.48818 39.25041,-13.48151 4.80497,-1.39527 9.60473,-2.7846 14.44363,-4.03957 0,0 -7.38785,-5.42595 -7.38785,-5.42595 v 0 c -4.82043,1.28965 -9.60446,2.70257 -14.39198,4.12475 -13.13375,4.1903 -26.06103,9.0396 -39.07461,13.6253 -12.56328,4.103 -25.13928,8.21828 -36.62961,15.18825 -11.50495,6.57073 -22.71187,13.69231 -33.58503,21.38903 -1.07657,0.68498 -2.12732,1.4182 -3.22977,2.05488 -0.66238,0.38252 -2.54515,0.38725 -2.05703,0.9983 8.33098,10.42917 6.92973,6.1217 7.72255,0.89565 0.8887,-5.8498 2.08703,-11.63845 3.37478,-17.40183 2.7443,-11.07575 5.25413,-22.2172 7.33943,-33.45696 4.96175,-28.38403 8.80805,-56.96663 12.97742,-85.49069 5.02193,-34.81448 10.26466,-69.73521 10.21886,-105.06539 -0.0702,-16.99208 -0.32303,-34.11088 -3.45321,-50.83721 z" />
    <path
       style="fill:#d82ad8;fill-opacity:1;stroke:#18bc9c;stroke-width:24.3914;stroke-dasharray:none;stroke-opacity:1"
       id="path19"
       d="m 112.5658,228.75187 c 8.1598,-11.00488 18.71254,-18.81295 29.11324,-26.4276 11.15944,-7.80148 23.20398,-13.67403 35.84667,-17.03516 7.50777,-1.996 11.55611,-2.38192 19.15316,-3.51262 14.34409,-0.83828 29.15229,-0.60728 43.0944,4.08562 2.0243,0.68138 3.95817,1.6983 5.93722,2.54745 1.53813,0.855 3.46438,1.0783 4.61435,2.56493 0.97508,1.26045 -3.09092,-3.11035 -4.03822,-1.8201 -0.91398,1.245 1.76305,2.58727 2.39317,4.06085 2.70663,6.3296 2.75748,13.43655 3.00255,20.328 -1.234,25.39623 -9.77032,49.10321 -18.01608,72.21939 -9.8768,25.7181 -20.20045,51.19513 -30.71499,76.55171 -8.21888,18.84996 -16.63143,37.65321 -26.7093,55.20311 -6.64267,11.17706 -14.02398,21.66976 -21.71115,31.83471 -3.97188,4.6826 -7.84227,9.4653 -11.04249,14.9337 -1.64077,2.54568 -2.83213,5.38158 -4.08305,8.19873 -0.41915,0.65487 -0.55364,1.74877 -1.19074,2.15215 0,0 7.78209,5.797 7.78209,5.797 v 0 c 0.61288,-0.73425 0.92963,-1.64175 1.31866,-2.56693 1.19914,-2.79205 2.33005,-5.62007 3.89348,-8.16667 3.18448,-5.39615 6.88189,-10.27778 10.73714,-15.00838 7.59645,-10.29608 14.84656,-20.9434 21.48103,-32.15431 9.9361,-17.71852 18.15154,-36.6917 26.32068,-55.62203 10.48162,-25.39818 20.69524,-50.95951 30.62617,-76.66934 8.32315,-23.15223 17.0177,-46.81801 18.77598,-72.20549 -0.097,-6.9596 -0.015,-14.1587 -2.49778,-20.6713 -3.16267,-8.29713 -11.01955,-11.67133 -17.60602,-15.1409 -1.96461,-0.78348 -3.89096,-1.71913 -5.89383,-2.35045 -13.97138,-4.40385 -28.7082,-4.5614 -43.02655,-3.6204 -7.18487,1.11497 -12.13609,1.68192 -19.2343,3.60472 -12.69367,3.43858 -24.73108,9.54795 -35.99754,17.24228 -10.63233,7.63408 -21.36063,15.43553 -30.08914,26.09905 z" />
  </g>
</svg>
