<?xml version="1.0" encoding="UTF-8" standalone="no"?>
<!-- Created with Inkscape (http://www.inkscape.org/) -->

<svg
   width="1200"
   height="1200"
   viewBox="0 0 317.49999 317.5"
   version="1.1"
   id="svg1"
   inkscape:version="1.4.2 (ebf0e940, 2025-05-08)"
   sodipodi:docname="navbar-logo-large-teal.svg"
   xmlns:inkscape="http://www.inkscape.org/namespaces/inkscape"
   xmlns:sodipodi="http://sodipodi.sourceforge.net/DTD/sodipodi-0.dtd"
   xmlns="http://www.w3.org/2000/svg"
   xmlns:svg="http://www.w3.org/2000/svg">
  <sodipodi:namedview
     id="namedview1"
     pagecolor="#ffffff"
     bordercolor="#000000"
     borderopacity="0.25"
     inkscape:showpageshadow="2"
     inkscape:pageopacity="0.0"
     inkscape:pagecheckerboard="0"
     inkscape:deskcolor="#d1d1d1"
     inkscape:document-units="mm"
     inkscape:zoom="0.34225497"
     inkscape:cx="524.46281"
     inkscape:cy="504.01022"
     inkscape:window-width="1200"
     inkscape:window-height="716"
     inkscape:window-x="1546"
     inkscape:window-y="1118"
     inkscape:window-maximized="0"
     inkscape:current-layer="layer1" />
  <defs
     id="defs1" />
  <g
     inkscape:label="Layer 1"
     inkscape:groupmode="layer"
     id="layer1"
     transform="matrix(0.04489661,0,0,0.04489661,-0.90533105,-4.469689)">
    <path
       sodipodi:type="star"
       style="fill:#000000;fill-opacity:1;stroke:#18bc9c;stroke-width:3;stroke-dasharray:none;stroke-opacity:1"
       id="path1"
       inkscape:flatsided="true"
       sodipodi:sides="6"
       sodipodi:cx="114.82627"
       sodipodi:cy="193.85378"
       sodipodi:r1="92.558655"
       sodipodi:r2="74.881523"
       sodipodi:arg1="-1.5707963"
       sodipodi:arg2="-1.0471975"
       inkscape:rounded="0"
       inkscape:randomized="0"
       d="m 114.82627,101.29512 80.15815,46.27933 0,92.55865 -80.15815,46.27933 -80.158147,-46.27933 3e-6,-92.55865 z"
       inkscape:transform-center-y="-331.45029"
       transform="matrix(43.301273,0,0,37.500464,-1415.2571,-3632.9405)"
       inkscape:transform-center-x="-3.9158589e-06" />
    <path
       style="fill:#d82ad8;fill-opacity:1;stroke:#18bc9c;stroke-width:375;stroke-dasharray:none;stroke-opacity:1"
       id="path16"
       d="m 1820.6316,2108.8623 c 48.9886,190.4287 35.6643,388.6804 26.9605,582.2032 -23.785,377.6514 -81.1888,752.7729 -122.0937,1129.1103 -33.0934,288.3888 -52.6192,577.8132 -42.4147,867.6437 7.1652,119.5657 3.3555,62.9662 11.1783,169.812 0,0 126.1828,55.831 126.1828,55.831 v 0 c -11.3385,-107.8908 -5.9508,-50.805 -15.7194,-171.2905 -15.7431,-290.7594 1.119,-581.4084 30.8027,-871.1732 40.2342,-375.9556 98.0404,-750.3823 127.5853,-1127.2068 11.5542,-192.213 28.2242,-387.2887 -7.8415,-578.2987 z" />
    <path
       style="fill:#18bc9c;fill-opacity:1;stroke:#18bc9c;stroke-width:370.38;stroke-dasharray:none;stroke-opacity:1"
       id="path18"
       d="m 4400.2656,1250.9994 c 59.8437,251.0722 67.1569,511.9912 72.0019,769.5747 6.7286,530.5647 -67.2784,1056.1641 -144.0694,1578.7795 -63.0225,425.9037 -126.1856,851.9762 -207.791,1274.3709 -33.109,166.8827 -77.356,330.7172 -120.1878,494.9405 -20.7837,86.2936 -37.7442,173.5917 -53.0977,261.1467 -14.5557,98.3337 -33.035,89.9122 123.7293,142.4472 11.5147,3.8587 20.7367,-13.1715 30.8734,-20.1488 15.741,-10.8349 31.1633,-22.1854 46.745,-33.2782 158.4585,-120.879 326.1337,-226.9553 498.8112,-322.9532 172.2885,-101.9583 359.5677,-165.0903 547.0162,-226.3893 195.0965,-71.346 390.2387,-142.3227 588.7562,-202.2226 72.0745,-20.9291 144.0709,-41.769 216.6544,-60.5936 0,0 -110.8177,-81.3892 -110.8177,-81.3892 v 0 c -72.3065,19.3447 -144.0669,40.5385 -215.8797,61.8712 -197.0063,62.8545 -390.9155,135.594 -586.1192,204.3795 -188.4492,61.545 -377.0892,123.2742 -549.4441,227.8238 -172.5743,98.5609 -340.6781,205.3846 -503.7755,320.8354 -16.1485,10.2747 -31.9098,21.273 -48.4465,30.8232 -9.9357,5.7378 -38.1773,5.8088 -30.8555,14.9745 124.9647,156.4376 103.946,91.8255 115.8383,13.4348 13.3305,-87.747 31.3054,-174.5768 50.6217,-261.0275 41.1645,-166.1362 78.8119,-333.258 110.0914,-501.8544 74.4263,-425.7604 132.1208,-854.4994 194.6613,-1282.3603 75.329,-522.2172 153.9699,-1046.0282 153.2829,-1575.9809 -1.053,-254.8812 -4.8454,-511.6632 -51.7981,-762.5581 z" />
    <path
       style="fill:#d82ad8;fill-opacity:1;stroke:#18bc9c;stroke-width:365.871;stroke-dasharray:none;stroke-opacity:1"
       id="path19"
       d="m 1394.9796,2021.1876 c 122.397,-165.0732 280.6881,-282.1943 436.6986,-396.414 167.3916,-117.0222 348.0597,-205.1105 537.7,-255.5274 112.6166,-29.94 173.3417,-35.7288 287.2974,-52.6893 215.1614,-12.5742 437.2844,-9.1092 646.416,61.2843 30.3645,10.2207 59.3726,25.4745 89.0583,38.2117 23.072,12.825 51.9657,16.1745 69.2153,38.474 14.6262,18.9067 -46.3638,-46.6553 -60.5733,-27.3015 -13.7097,18.675 26.4457,38.809 35.8975,60.9127 40.5995,94.944 41.3622,201.5483 45.0383,304.92 -18.51,380.9435 -146.5548,736.5482 -270.2412,1083.2909 -148.152,385.7715 -303.0068,767.9269 -460.7249,1148.2756 -123.2832,282.7494 -249.4714,564.7982 -400.6395,828.0467 -99.64,167.6559 -210.3597,325.0464 -325.6672,477.5206 -59.5782,70.239 -117.6341,141.9795 -165.6374,224.0055 -24.6115,38.1852 -42.4819,80.7237 -61.2457,122.981 -6.2873,9.823 -8.3046,26.2315 -17.8611,32.2822 0,0 116.7313,86.955 116.7313,86.955 v 0 c 9.1932,-11.0137 13.9445,-24.6262 19.7799,-38.5039 17.9871,-41.8808 34.9508,-84.3011 58.4022,-122.5001 47.7672,-80.9422 103.2284,-154.1667 161.0571,-225.1257 113.9468,-154.4412 222.6984,-314.151 322.2155,-482.3146 149.0415,-265.7778 272.2731,-550.3755 394.8102,-834.3305 157.2243,-380.9727 310.4286,-764.3926 459.3925,-1150.0401 124.8473,-347.2834 255.2655,-702.2701 281.6397,-1083.0823 -1.455,-104.394 -0.225,-212.3805 -37.4667,-310.0695 -47.44,-124.457 -165.2932,-175.07 -264.0903,-227.1135 -29.4691,-11.7522 -58.3644,-25.787 -88.4074,-35.2568 -209.5707,-66.0577 -430.623,-68.421 -645.3983,-54.306 -107.773,16.7246 -182.0413,25.2288 -288.5145,54.0708 -190.405,51.5787 -370.9662,143.2193 -539.9631,258.6342 -159.4849,114.5112 -320.4094,231.533 -451.3371,391.4858 z" />
  </g>
</svg>
